<svg width="530" height="344" viewBox="0 0 530 344" fill="none" xmlns="http://www.w3.org/2000/svg">
<ellipse cx="264.74" cy="171.554" rx="264.74" ry="171.554" fill="#E7F8F2"/>
<path d="M168.007 157.716C153.976 157.716 142.552 165.119 142.552 174.212V226.998C142.552 236.09 153.976 243.493 168.007 243.493H198.554C204.287 243.493 209.561 242.24 213.828 240.154V157.716H168.007Z" fill="#0EBE7F"/>
<path d="M386.928 182.46C386.928 178.494 384.504 174.799 380.299 172.074C385.054 168.702 387.477 164.182 386.815 159.478C385.624 151.091 373.965 144.519 360.26 144.519H297.364C300.48 138.39 305.469 127.153 305.469 118.127C305.469 103.815 286.703 91.7337 274.922 91.7337C264.343 91.7337 256.787 95.5937 256.462 95.752C255.26 96.379 254.558 97.3291 254.558 98.3318V120.706L225.233 161.873L224.011 162.275V232.995C232.299 235.529 242.787 236.895 249.466 236.895H342.93C354.018 236.895 363.722 232.052 366.003 225.368C367.174 221.93 366.492 218.466 364.16 215.457C371.685 213.003 376.745 207.981 376.745 202.254C376.745 199.918 375.921 197.682 374.353 195.656C381.877 193.202 386.928 188.18 386.928 182.46Z" fill="#0EBE7F"/>
</svg>
