<svg width="80" height="54" viewBox="0 0 80 54" fill="none" xmlns="http://www.w3.org/2000/svg">
<path d="M58.8137 0.784424C54.5012 0.784424 50.5474 1.80613 47.0624 3.82123C43.7213 5.75312 41.4968 8.21373 40.1872 10.003C38.8776 8.21361 36.6531 5.75312 33.312 3.82123C29.827 1.80613 25.8732 0.784424 21.5607 0.784424C9.52613 0.784424 0.450684 8.14398 0.450684 17.9035C0.450684 28.4471 11.7729 35.6609 28.9134 46.5816C31.8241 48.4362 35.1233 50.5383 38.5524 52.7803C39.0044 53.0762 39.5849 53.2391 40.1872 53.2391C40.7894 53.2391 41.37 53.0762 41.822 52.7804C45.2514 50.5381 48.5505 48.4361 51.4629 46.5804C68.6014 35.6609 79.9237 28.4471 79.9237 17.9035C79.9237 8.14398 70.8483 0.784424 58.8137 0.784424Z" fill="#FF0000"/>
</svg>
