<svg width="336" height="38" viewBox="0 0 336 38" fill="none" xmlns="http://www.w3.org/2000/svg">
<path d="M50.9276 14.6367C50.7546 14.225 50.2945 13.9249 49.7407 13.8628L34.1805 12.1142L27.2215 1.21052C26.9739 0.822364 26.4626 0.57666 25.903 0.57666C25.3432 0.57666 24.832 0.822364 24.5843 1.21052L17.6251 12.1142L2.06519 13.8628C1.51139 13.9249 1.05113 14.225 0.878194 14.6367C0.705165 15.0484 0.84947 15.5003 1.25033 15.8024L12.5093 24.2897L9.85181 36.2742C9.75711 36.7008 9.98396 37.1319 10.4368 37.3864C10.6929 37.5303 10.9964 37.6035 11.3012 37.6035C11.5353 37.6035 11.7702 37.5604 11.9853 37.4729L25.9029 31.8145L39.8198 37.4728C40.3154 37.6743 40.9157 37.6408 41.3685 37.3863C41.8213 37.1319 42.0482 36.7007 41.9536 36.274L39.2953 24.2897L50.5555 15.8023C50.9563 15.5003 51.1007 15.0484 50.9276 14.6367Z" fill="#F6D060"/>
<path d="M122.036 14.6367C121.863 14.225 121.403 13.9249 120.849 13.8628L105.289 12.1142L98.3299 1.21052C98.0823 0.822364 97.571 0.57666 97.0114 0.57666C96.4516 0.57666 95.9404 0.822364 95.6927 1.21052L88.7335 12.1142L73.1736 13.8628C72.6198 13.9249 72.1595 14.225 71.9866 14.6367C71.8136 15.0484 71.9579 15.5003 72.3587 15.8024L83.6177 24.2897L80.9602 36.2742C80.8655 36.7008 81.0924 37.1319 81.5452 37.3864C81.8013 37.5303 82.1048 37.6035 82.4096 37.6035C82.6437 37.6035 82.8786 37.5604 83.0937 37.4729L97.0113 31.8145L110.928 37.4728C111.424 37.6743 112.024 37.6408 112.477 37.3863C112.93 37.1319 113.157 36.7007 113.062 36.274L110.404 24.2897L121.664 15.8023C122.065 15.5003 122.209 15.0484 122.036 14.6367Z" fill="#F6D060"/>
<path d="M193.143 14.6367C192.97 14.225 192.51 13.9249 191.956 13.8628L176.396 12.1142L169.437 1.21052C169.189 0.822364 168.678 0.57666 168.118 0.57666C167.559 0.57666 167.047 0.822364 166.8 1.21052L159.84 12.1142L144.281 13.8628C143.727 13.9249 143.266 14.225 143.094 14.6367C142.92 15.0484 143.065 15.5003 143.466 15.8024L154.725 24.2897L152.067 36.2742C151.972 36.7008 152.199 37.1319 152.652 37.3864C152.908 37.5303 153.212 37.6035 153.517 37.6035C153.751 37.6035 153.986 37.5604 154.201 37.4729L168.118 31.8145L182.035 37.4728C182.531 37.6743 183.131 37.6408 183.584 37.3863C184.037 37.1319 184.264 36.7007 184.169 36.274L181.511 24.2897L192.771 15.8023C193.172 15.5003 193.316 15.0484 193.143 14.6367Z" fill="#F6D060"/>
<path d="M264.25 14.6367C264.077 14.225 263.617 13.9249 263.063 13.8628L247.503 12.1142L240.544 1.21052C240.297 0.822364 239.785 0.57666 239.226 0.57666C238.666 0.57666 238.155 0.822364 237.907 1.21052L230.948 12.1142L215.388 13.8628C214.834 13.9249 214.374 14.225 214.201 14.6367C214.028 15.0484 214.172 15.5003 214.573 15.8024L225.832 24.2897L223.175 36.2742C223.08 36.7008 223.307 37.1319 223.76 37.3864C224.016 37.5303 224.319 37.6035 224.624 37.6035C224.858 37.6035 225.093 37.5604 225.308 37.4729L239.226 31.8145L253.143 37.4728C253.638 37.6743 254.238 37.6408 254.691 37.3863C255.144 37.1319 255.371 36.7007 255.276 36.274L252.618 24.2897L263.878 15.8023C264.279 15.5003 264.423 15.0484 264.25 14.6367Z" fill="#F6D060"/>
<path d="M335.358 14.6367C335.185 14.225 334.725 13.9249 334.171 13.8628L318.611 12.1142L311.652 1.21052C311.404 0.822364 310.893 0.57666 310.333 0.57666C309.773 0.57666 309.262 0.822364 309.014 1.21052L302.055 12.1142L286.495 13.8628C285.942 13.9249 285.481 14.225 285.308 14.6367C285.135 15.0484 285.28 15.5003 285.681 15.8024L296.939 24.2897L294.282 36.2742C294.187 36.7008 294.414 37.1319 294.867 37.3864C295.123 37.5303 295.427 37.6035 295.731 37.6035C295.966 37.6035 296.2 37.5604 296.415 37.4729L310.333 31.8145L324.25 37.4728C324.746 37.6743 325.346 37.6408 325.799 37.3863C326.251 37.1319 326.478 36.7007 326.384 36.274L323.725 24.2897L334.986 15.8023C335.386 15.5003 335.531 15.0484 335.358 14.6367Z" fill="#E2E5EA"/>
</svg>
