<svg width="345" height="38" viewBox="0 0 345 38" fill="none" xmlns="http://www.w3.org/2000/svg">
<path d="M52.2988 14.0601C52.1215 13.6483 51.6497 13.3483 51.0817 13.2861L35.1254 11.5375L27.9893 0.633856C27.7353 0.245704 27.2111 0 26.6371 0C26.0631 0 25.539 0.245704 25.2849 0.633856L18.1485 11.5375L2.19246 13.2861C1.62456 13.3483 1.15258 13.6483 0.975243 14.06C0.797808 14.4717 0.945788 14.9236 1.35685 15.2257L12.9025 23.7131L10.1773 35.6975C10.0802 36.1242 10.3128 36.5552 10.7772 36.8097C11.0399 36.9536 11.351 37.0269 11.6637 37.0269C11.9037 37.0269 12.1446 36.9837 12.3652 36.8962L26.637 31.2379L40.9083 36.8962C41.4165 37.0976 42.0321 37.0641 42.4964 36.8097C42.9608 36.5552 43.1935 36.124 43.0965 35.6974L40.3704 23.7131L51.9173 15.2257C52.3283 14.9236 52.4764 14.4717 52.2988 14.0601Z" fill="#F6D060"/>
<path d="M125.218 14.0601C125.04 13.6483 124.569 13.3483 124.001 13.2861L108.044 11.5375L100.908 0.633856C100.654 0.245704 100.13 0 99.5561 0C98.9821 0 98.4579 0.245704 98.2039 0.633856L91.0675 11.5375L75.1114 13.2861C74.5435 13.3483 74.0715 13.6483 73.8942 14.06C73.7168 14.4717 73.8647 14.9236 74.2758 15.2257L85.8214 23.7131L83.0963 35.6975C82.9992 36.1242 83.2318 36.5552 83.6961 36.8097C83.9588 36.9536 84.27 37.0269 84.5826 37.0269C84.8227 37.0269 85.0635 36.9837 85.2841 36.8962L99.556 31.2379L113.827 36.8962C114.335 37.0976 114.951 37.0641 115.415 36.8097C115.88 36.5552 116.112 36.124 116.015 35.6974L113.289 23.7131L124.836 15.2257C125.247 14.9236 125.395 14.4717 125.218 14.0601Z" fill="#F6D060"/>
<path d="M198.135 14.0601C197.958 13.6483 197.486 13.3483 196.918 13.2861L180.962 11.5375L173.826 0.633856C173.572 0.245704 173.047 0 172.474 0C171.9 0 171.375 0.245704 171.121 0.633856L163.985 11.5375L148.029 13.2861C147.461 13.3483 146.989 13.6483 146.812 14.06C146.634 14.4717 146.782 14.9236 147.193 15.2257L158.739 23.7131L156.014 35.6975C155.917 36.1242 156.149 36.5552 156.614 36.8097C156.876 36.9536 157.187 37.0269 157.5 37.0269C157.74 37.0269 157.981 36.9837 158.202 36.8962L172.473 31.2379L186.745 36.8962C187.253 37.0976 187.868 37.0641 188.333 36.8097C188.797 36.5552 189.03 36.124 188.933 35.6974L186.207 23.7131L197.754 15.2257C198.165 14.9236 198.313 14.4717 198.135 14.0601Z" fill="#F6D060"/>
<path d="M271.053 14.0601C270.875 13.6483 270.404 13.3483 269.836 13.2861L253.879 11.5375L246.743 0.633856C246.489 0.245704 245.965 0 245.391 0C244.817 0 244.293 0.245704 244.039 0.633856L236.902 11.5375L220.946 13.2861C220.378 13.3483 219.906 13.6483 219.729 14.06C219.552 14.4717 219.7 14.9236 220.111 15.2257L231.656 23.7131L228.931 35.6975C228.834 36.1242 229.067 36.5552 229.531 36.8097C229.794 36.9536 230.105 37.0269 230.418 37.0269C230.658 37.0269 230.898 36.9837 231.119 36.8962L245.391 31.2379L259.662 36.8962C260.17 37.0976 260.786 37.0641 261.25 36.8097C261.715 36.5552 261.947 36.124 261.85 35.6974L259.124 23.7131L270.671 15.2257C271.082 14.9236 271.23 14.4717 271.053 14.0601Z" fill="#F6D060"/>
<path d="M343.97 14.0601C343.793 13.6483 343.321 13.3483 342.753 13.2861L326.797 11.5375L319.661 0.633856C319.407 0.245704 318.882 0 318.309 0C317.735 0 317.21 0.245704 316.956 0.633856L309.82 11.5375L293.864 13.2861C293.296 13.3483 292.824 13.6483 292.647 14.06C292.469 14.4717 292.617 14.9236 293.028 15.2257L304.574 23.7131L301.849 35.6975C301.752 36.1242 301.984 36.5552 302.449 36.8097C302.711 36.9536 303.022 37.0269 303.335 37.0269C303.575 37.0269 303.816 36.9837 304.037 36.8962L318.308 31.2379L332.58 36.8962C333.088 37.0976 333.703 37.0641 334.168 36.8097C334.632 36.5552 334.865 36.124 334.768 35.6974L332.042 23.7131L343.589 15.2257C344 14.9236 344.148 14.4717 343.97 14.0601Z" fill="#E2E5EA"/>
</svg>
