<svg width="343" height="38" viewBox="0 0 343 38" fill="none" xmlns="http://www.w3.org/2000/svg">
<path d="M52.0644 14.0601C51.8879 13.6483 51.4184 13.3483 50.8532 13.2861L34.9738 11.5375L27.8722 0.633856C27.6195 0.245704 27.0977 0 26.5266 0C25.9553 0 25.4337 0.245704 25.1809 0.633856L18.0789 11.5375L2.1999 13.2861C1.63474 13.3483 1.16504 13.6483 0.988558 14.06C0.81198 14.4717 0.959245 14.9236 1.36833 15.2257L12.8582 23.7131L10.1462 35.6975C10.0496 36.1242 10.2811 36.5552 10.7432 36.8097C11.0046 36.9536 11.3142 37.0269 11.6254 37.0269C11.8643 37.0269 12.104 36.9837 12.3235 36.8962L26.5265 31.2379L40.7289 36.8962C41.2346 37.0976 41.8472 37.0641 42.3093 36.8097C42.7714 36.5552 43.003 36.124 42.9064 35.6974L40.1935 23.7131L51.6847 15.2257C52.0937 14.9236 52.2411 14.4717 52.0644 14.0601Z" fill="#F6D060"/>
<path d="M124.631 14.0601C124.455 13.6483 123.985 13.3483 123.42 13.2861L107.541 11.5375L100.439 0.633856C100.186 0.245704 99.6646 0 99.0935 0C98.5222 0 98.0006 0.245704 97.7478 0.633856L90.6458 11.5375L74.7668 13.2861C74.2016 13.3483 73.7319 13.6483 73.5555 14.06C73.3789 14.4717 73.5261 14.9236 73.9352 15.2257L85.4251 23.7131L82.7131 35.6975C82.6165 36.1242 82.848 36.5552 83.3101 36.8097C83.5715 36.9536 83.8811 37.0269 84.1923 37.0269C84.4312 37.0269 84.6709 36.9837 84.8904 36.8962L99.0934 31.2379L113.296 36.8962C113.801 37.0976 114.414 37.0641 114.876 36.8097C115.338 36.5552 115.57 36.124 115.473 35.6974L112.76 23.7131L124.252 15.2257C124.661 14.9236 124.808 14.4717 124.631 14.0601Z" fill="#F6D060"/>
<path d="M197.197 14.0601C197.02 13.6483 196.551 13.3483 195.985 13.2861L180.106 11.5375L173.004 0.633856C172.752 0.245704 172.23 0 171.659 0C171.088 0 170.566 0.245704 170.313 0.633856L163.211 11.5375L147.332 13.2861C146.767 13.3483 146.297 13.6483 146.121 14.06C145.944 14.4717 146.092 14.9236 146.501 15.2257L157.991 23.7131L155.279 35.6975C155.182 36.1242 155.413 36.5552 155.876 36.8097C156.137 36.9536 156.447 37.0269 156.758 37.0269C156.997 37.0269 157.236 36.9837 157.456 36.8962L171.659 31.2379L185.861 36.8962C186.367 37.0976 186.979 37.0641 187.442 36.8097C187.904 36.5552 188.135 36.124 188.039 35.6974L185.326 23.7131L196.817 15.2257C197.226 14.9236 197.373 14.4717 197.197 14.0601Z" fill="#F6D060"/>
<path d="M269.763 14.0601C269.586 13.6483 269.117 13.3483 268.551 13.2861L252.672 11.5375L245.57 0.633856C245.318 0.245704 244.796 0 244.225 0C243.654 0 243.132 0.245704 242.879 0.633856L235.777 11.5375L219.898 13.2861C219.333 13.3483 218.863 13.6483 218.687 14.06C218.51 14.4717 218.657 14.9236 219.067 15.2257L230.556 23.7131L227.844 35.6975C227.748 36.1242 227.979 36.5552 228.441 36.8097C228.703 36.9536 229.012 37.0269 229.324 37.0269C229.563 37.0269 229.802 36.9837 230.022 36.8962L244.225 31.2379L258.427 36.8962C258.933 37.0976 259.545 37.0641 260.008 36.8097C260.47 36.5552 260.701 36.124 260.605 35.6974L257.892 23.7131L269.383 15.2257C269.792 14.9236 269.939 14.4717 269.763 14.0601Z" fill="#F6D060"/>
<path d="M342.328 14.0601C342.152 13.6483 341.682 13.3483 341.117 13.2861L325.237 11.5375L318.136 0.633856C317.883 0.245704 317.361 0 316.79 0C316.219 0 315.697 0.245704 315.445 0.633856L308.343 11.5375L292.464 13.2861C291.898 13.3483 291.429 13.6483 291.252 14.06C291.076 14.4717 291.223 14.9236 291.632 15.2257L303.122 23.7131L300.41 35.6975C300.313 36.1242 300.545 36.5552 301.007 36.8097C301.268 36.9536 301.578 37.0269 301.889 37.0269C302.128 37.0269 302.368 36.9837 302.587 36.8962L316.79 31.2379L330.993 36.8962C331.498 37.0976 332.111 37.0641 332.573 36.8097C333.035 36.5552 333.267 36.124 333.17 35.6974L330.457 23.7131L341.948 15.2257C342.357 14.9236 342.505 14.4717 342.328 14.0601Z" fill="#E2E5EA"/>
</svg>
