<svg width="347" height="38" viewBox="0 0 347 38" fill="none" xmlns="http://www.w3.org/2000/svg">
<path d="M52.1941 14.0601C52.015 13.6483 51.5384 13.3483 50.9647 13.2861L34.8481 11.5375L27.6403 0.633856C27.3838 0.245704 26.8543 0 26.2746 0C25.6948 0 25.1654 0.245704 24.9088 0.633856L17.7007 11.5375L1.58433 13.2861C1.01074 13.3483 0.534007 13.6483 0.354892 14.06C0.175674 14.4717 0.325141 14.9236 0.740336 15.2257L12.402 23.7131L9.64942 35.6975C9.55133 36.1242 9.78629 36.5552 10.2553 36.8097C10.5206 36.9536 10.8349 37.0269 11.1507 37.0269C11.3932 37.0269 11.6364 36.9837 11.8592 36.8962L26.2745 31.2379L40.6891 36.8962C41.2024 37.0976 41.8242 37.0641 42.2932 36.8097C42.7622 36.5552 42.9972 36.124 42.8993 35.6974L40.1458 23.7131L51.8087 15.2257C52.2238 14.9236 52.3734 14.4717 52.1941 14.0601Z" fill="#F6D060"/>
<path d="M125.845 14.0601C125.666 13.6483 125.19 13.3483 124.616 13.2861L108.499 11.5375L101.292 0.633856C101.035 0.245704 100.506 0 99.926 0C99.3462 0 98.8167 0.245704 98.5601 0.633856L91.3521 11.5375L75.2357 13.2861C74.6621 13.3483 74.1854 13.6483 74.0063 14.06C73.827 14.4717 73.9765 14.9236 74.3917 15.2257L86.0533 23.7131L83.3008 35.6975C83.2027 36.1242 83.4377 36.5552 83.9067 36.8097C84.172 36.9536 84.4863 37.0269 84.802 37.0269C85.0445 37.0269 85.2878 36.9837 85.5106 36.8962L99.9259 31.2379L114.341 36.8962C114.854 37.0976 115.476 37.0641 115.945 36.8097C116.414 36.5552 116.649 36.124 116.551 35.6974L113.797 23.7131L125.46 15.2257C125.875 14.9236 126.025 14.4717 125.845 14.0601Z" fill="#F6D060"/>
<path d="M199.496 14.0601C199.317 13.6483 198.84 13.3483 198.267 13.2861L182.15 11.5375L174.942 0.633856C174.686 0.245704 174.156 0 173.576 0C172.997 0 172.467 0.245704 172.211 0.633856L165.002 11.5375L148.886 13.2861C148.312 13.3483 147.836 13.6483 147.657 14.06C147.477 14.4717 147.627 14.9236 148.042 15.2257L159.704 23.7131L156.951 35.6975C156.853 36.1242 157.088 36.5552 157.557 36.8097C157.822 36.9536 158.137 37.0269 158.452 37.0269C158.695 37.0269 158.938 36.9837 159.161 36.8962L173.576 31.2379L187.991 36.8962C188.504 37.0976 189.126 37.0641 189.595 36.8097C190.064 36.5552 190.299 36.124 190.201 35.6974L187.448 23.7131L199.111 15.2257C199.526 14.9236 199.675 14.4717 199.496 14.0601Z" fill="#F6D060"/>
<path d="M273.146 14.0601C272.967 13.6483 272.491 13.3483 271.917 13.2861L255.8 11.5375L248.592 0.633856C248.336 0.245704 247.806 0 247.227 0C246.647 0 246.118 0.245704 245.861 0.633856L238.653 11.5375L222.536 13.2861C221.963 13.3483 221.486 13.6483 221.307 14.06C221.128 14.4717 221.277 14.9236 221.692 15.2257L233.354 23.7131L230.602 35.6975C230.503 36.1242 230.738 36.5552 231.207 36.8097C231.473 36.9536 231.787 37.0269 232.103 37.0269C232.345 37.0269 232.589 36.9837 232.811 36.8962L247.227 31.2379L261.641 36.8962C262.155 37.0976 262.776 37.0641 263.245 36.8097C263.714 36.5552 263.949 36.124 263.851 35.6974L261.098 23.7131L272.761 15.2257C273.176 14.9236 273.326 14.4717 273.146 14.0601Z" fill="#F6D060"/>
<path d="M346.797 14.0601C346.618 13.6483 346.141 13.3483 345.567 13.2861L329.451 11.5375L322.243 0.633856C321.986 0.245704 321.457 0 320.877 0C320.297 0 319.768 0.245704 319.511 0.633856L312.303 11.5375L296.187 13.2861C295.613 13.3483 295.137 13.6483 294.957 14.06C294.778 14.4717 294.928 14.9236 295.343 15.2257L307.004 23.7131L304.252 35.6975C304.154 36.1242 304.389 36.5552 304.858 36.8097C305.123 36.9536 305.437 37.0269 305.753 37.0269C305.996 37.0269 306.239 36.9837 306.462 36.8962L320.877 31.2379L335.292 36.8962C335.805 37.0976 336.427 37.0641 336.896 36.8097C337.365 36.5552 337.6 36.124 337.502 35.6974L334.748 23.7131L346.411 15.2257C346.826 14.9236 346.976 14.4717 346.797 14.0601Z" fill="#E2E5EA"/>
</svg>
