<svg width="336" height="38" viewBox="0 0 336 38" fill="none" xmlns="http://www.w3.org/2000/svg">
<path d="M50.928 14.6367C50.7551 14.225 50.295 13.9249 49.7411 13.8628L34.1809 12.1142L27.222 1.21052C26.9744 0.822364 26.4631 0.57666 25.9035 0.57666C25.3437 0.57666 24.8325 0.822364 24.5848 1.21052L17.6256 12.1142L2.06567 13.8628C1.51188 13.9249 1.05161 14.225 0.878682 14.6367C0.705653 15.0484 0.849959 15.5003 1.25082 15.8024L12.5098 24.2897L9.8523 36.2742C9.7576 36.7008 9.98445 37.1319 10.4373 37.3864C10.6934 37.5303 10.9968 37.6035 11.3017 37.6035C11.5358 37.6035 11.7707 37.5604 11.9858 37.4729L25.9034 31.8145L39.8203 37.4728C40.3159 37.6743 40.9161 37.6408 41.369 37.3863C41.8218 37.1319 42.0487 36.7007 41.9541 36.274L39.2957 24.2897L50.556 15.8023C50.9568 15.5003 51.1012 15.0484 50.928 14.6367Z" fill="#F6D060"/>
<path d="M122.036 14.6367C121.864 14.225 121.403 13.9249 120.85 13.8628L105.289 12.1142L98.3304 1.21052C98.0828 0.822364 97.5715 0.57666 97.0119 0.57666C96.4521 0.57666 95.9409 0.822364 95.6932 1.21052L88.734 12.1142L73.1741 13.8628C72.6203 13.9249 72.16 14.225 71.9871 14.6367C71.8141 15.0484 71.9584 15.5003 72.3592 15.8024L83.6182 24.2897L80.9607 36.2742C80.866 36.7008 81.0928 37.1319 81.5457 37.3864C81.8018 37.5303 82.1052 37.6035 82.4101 37.6035C82.6442 37.6035 82.8791 37.5604 83.0942 37.4729L97.0118 31.8145L110.929 37.4728C111.424 37.6743 112.025 37.6408 112.477 37.3863C112.93 37.1319 113.157 36.7007 113.063 36.274L110.404 24.2897L121.664 15.8023C122.065 15.5003 122.21 15.0484 122.036 14.6367Z" fill="#F6D060"/>
<path d="M193.144 14.6367C192.971 14.225 192.511 13.9249 191.957 13.8628L176.397 12.1142L169.438 1.21052C169.19 0.822364 168.679 0.57666 168.119 0.57666C167.56 0.57666 167.048 0.822364 166.801 1.21052L159.841 12.1142L144.281 13.8628C143.728 13.9249 143.267 14.225 143.095 14.6367C142.921 15.0484 143.066 15.5003 143.467 15.8024L154.726 24.2897L152.068 36.2742C151.973 36.7008 152.2 37.1319 152.653 37.3864C152.909 37.5303 153.213 37.6035 153.518 37.6035C153.752 37.6035 153.987 37.5604 154.202 37.4729L168.119 31.8145L182.036 37.4728C182.532 37.6743 183.132 37.6408 183.585 37.3863C184.038 37.1319 184.265 36.7007 184.17 36.274L181.512 24.2897L192.772 15.8023C193.173 15.5003 193.317 15.0484 193.144 14.6367Z" fill="#F6D060"/>
<path d="M264.251 14.6367C264.078 14.225 263.618 13.9249 263.064 13.8628L247.504 12.1142L240.545 1.21052C240.298 0.822364 239.786 0.57666 239.227 0.57666C238.667 0.57666 238.156 0.822364 237.908 1.21052L230.949 12.1142L215.389 13.8628C214.835 13.9249 214.375 14.225 214.202 14.6367C214.029 15.0484 214.173 15.5003 214.574 15.8024L225.833 24.2897L223.176 36.2742C223.081 36.7008 223.308 37.1319 223.761 37.3864C224.017 37.5303 224.32 37.6035 224.625 37.6035C224.859 37.6035 225.094 37.5604 225.309 37.4729L239.227 31.8145L253.144 37.4728C253.639 37.6743 254.239 37.6408 254.692 37.3863C255.145 37.1319 255.372 36.7007 255.277 36.274L252.619 24.2897L263.879 15.8023C264.28 15.5003 264.424 15.0484 264.251 14.6367Z" fill="#F6D060"/>
<path d="M335.359 14.6367C335.186 14.225 334.726 13.9249 334.172 13.8628L318.612 12.1142L311.653 1.21052C311.405 0.822364 310.894 0.57666 310.334 0.57666C309.774 0.57666 309.263 0.822364 309.015 1.21052L302.056 12.1142L286.496 13.8628C285.943 13.9249 285.482 14.225 285.309 14.6367C285.136 15.0484 285.281 15.5003 285.681 15.8024L296.94 24.2897L294.283 36.2742C294.188 36.7008 294.415 37.1319 294.868 37.3864C295.124 37.5303 295.428 37.6035 295.732 37.6035C295.966 37.6035 296.201 37.5604 296.416 37.4729L310.334 31.8145L324.251 37.4728C324.747 37.6743 325.347 37.6408 325.8 37.3863C326.252 37.1319 326.479 36.7007 326.385 36.274L323.726 24.2897L334.987 15.8023C335.387 15.5003 335.532 15.0484 335.359 14.6367Z" fill="#E2E5EA"/>
</svg>
